<svg width="114" height="37" viewBox="0 0 114 37" fill="none" xmlns="http://www.w3.org/2000/svg">
<g clip-path="url(#clip0_606_9)">
<path d="M15.875 5.32812C15.5729 6.20312 15.3177 7.20833 15.1094 8.34375C14.901 9.46875 14.7969 10.7083 14.7969 12.0625C14.7969 13.0208 14.8281 13.9896 14.8906 14.9688C14.9531 15.9479 15.0052 17 15.0469 18.125C15.2969 17.9896 15.5156 17.9219 15.7031 17.9219C15.849 17.9219 15.9792 17.974 16.0938 18.0781C16.2083 18.1719 16.2656 18.2969 16.2656 18.4531C16.2656 18.6823 16.1615 18.8542 15.9531 18.9688C15.7448 19.0729 15.4479 19.2083 15.0625 19.375V20.7344C15.0625 23.1094 14.9219 25.2865 14.6406 27.2656C14.3698 29.2552 13.9271 30.9635 13.3125 32.3906C12.6979 33.8281 11.8854 34.9479 10.875 35.75C9.875 36.5521 8.65104 36.9531 7.20312 36.9531C6.58854 36.9531 5.98438 36.8333 5.39062 36.5938C4.79688 36.3646 4.26562 36.0104 3.79688 35.5312C3.33854 35.0521 2.96354 34.4531 2.67188 33.7344C2.39062 33.026 2.25 32.1927 2.25 31.2344C2.25 30.1823 2.44271 29.1771 2.82812 28.2188C3.22396 27.2708 3.73958 26.3802 4.375 25.5469C5.02083 24.7031 5.75521 23.9271 6.57812 23.2188C7.40104 22.5 8.23958 21.849 9.09375 21.2656C9.95833 20.6823 10.8073 20.1719 11.6406 19.7344C12.474 19.2969 13.2188 18.9375 13.875 18.6562C13.8542 17.5833 13.8073 16.5104 13.7344 15.4375C13.6615 14.3542 13.625 13.2448 13.625 12.1094C13.625 11.0469 13.6875 10.026 13.8125 9.04688C13.9479 8.05729 14.1302 7.13542 14.3594 6.28125C13.9531 6.51042 13.5052 6.72396 13.0156 6.92188C12.5365 7.11979 12.0312 7.30729 11.5 7.48438C10.9688 7.66146 10.4219 7.83333 9.85938 8C9.30729 8.16667 8.76042 8.32812 8.21875 8.48438C7.39583 8.72396 6.64583 8.98958 5.96875 9.28125C5.30208 9.5625 4.72917 9.89062 4.25 10.2656C3.77083 10.6406 3.39583 11.0677 3.125 11.5469C2.86458 12.026 2.73438 12.5781 2.73438 13.2031C2.73438 13.9323 2.875 14.5521 3.15625 15.0625C3.4375 15.5729 3.80208 15.9896 4.25 16.3125C4.70833 16.625 5.21875 16.8542 5.78125 17C6.35417 17.1354 6.92188 17.2031 7.48438 17.2031C7.65104 17.2031 7.78646 17.2604 7.89062 17.375C8.00521 17.4896 8.0625 17.6302 8.0625 17.7969C8.0625 17.9635 8 18.1042 7.875 18.2188C7.76042 18.3229 7.63021 18.375 7.48438 18.375C6.77604 18.375 6.06771 18.276 5.35938 18.0781C4.66146 17.8698 4.03125 17.5573 3.46875 17.1406C2.90625 16.7135 2.44792 16.1771 2.09375 15.5312C1.73958 14.8854 1.5625 14.125 1.5625 13.25C1.5625 12.4896 1.71354 11.8125 2.01562 11.2188C2.32812 10.6146 2.76042 10.0781 3.3125 9.60938C3.86458 9.14062 4.53125 8.72917 5.3125 8.375C6.09375 8.02083 6.95833 7.70833 7.90625 7.4375C8.59375 7.23958 9.27604 7.03125 9.95312 6.8125C10.6302 6.59375 11.2708 6.36979 11.875 6.14062C12.4896 5.90104 13.0521 5.65625 13.5625 5.40625C14.0729 5.14583 14.5104 4.875 14.875 4.59375C15.2917 3.42708 15.7396 2.53125 16.2188 1.90625C16.6979 1.27083 17.1562 0.953125 17.5938 0.953125C17.6875 0.953125 17.7865 0.973958 17.8906 1.01562C18.0052 1.04688 18.1094 1.10417 18.2031 1.1875C18.3073 1.26042 18.3906 1.36458 18.4531 1.5C18.5156 1.63542 18.5469 1.80208 18.5469 2C18.5469 2.45833 18.3073 2.97917 17.8281 3.5625C17.349 4.14583 16.6979 4.73438 15.875 5.32812ZM13.8906 19.8906C13.2865 20.151 12.6094 20.4844 11.8594 20.8906C11.1094 21.2969 10.3438 21.7708 9.5625 22.3125C8.79167 22.8542 8.03646 23.4531 7.29688 24.1094C6.56771 24.7656 5.91146 25.4688 5.32812 26.2188C4.75521 26.9792 4.29167 27.776 3.9375 28.6094C3.59375 29.4531 3.42188 30.3229 3.42188 31.2188C3.42188 31.9792 3.53125 32.6458 3.75 33.2188C3.96875 33.7917 4.26042 34.2708 4.625 34.6562C5 35.0417 5.42188 35.3281 5.89062 35.5156C6.36979 35.7135 6.85938 35.8125 7.35938 35.8125C8.22396 35.8125 8.98438 35.6094 9.64062 35.2031C10.2969 34.8073 10.8646 34.25 11.3438 33.5312C11.8333 32.8229 12.2396 31.974 12.5625 30.9844C12.8854 30.0052 13.1458 28.9219 13.3438 27.7344C13.5417 26.5573 13.6823 25.3073 13.7656 23.9844C13.849 22.651 13.8906 21.2865 13.8906 19.8906ZM24.835 24.25C24.4704 24.8438 24.0433 25.3125 23.5537 25.6562C23.0746 26 22.5902 26.1719 22.1006 26.1719C21.7048 26.1719 21.3506 26.099 21.0381 25.9531C20.7256 25.8073 20.4548 25.6042 20.2256 25.3438C19.9965 25.0729 19.8194 24.75 19.6944 24.375C19.5798 24 19.5225 23.5781 19.5225 23.1094C19.5225 22.3802 19.5902 21.7344 19.7256 21.1719C19.8715 20.6094 20.0277 20.1406 20.1944 19.7656C20.361 19.3802 20.5173 19.0885 20.6631 18.8906C20.809 18.6927 20.8819 18.5938 20.8819 18.5938C20.934 18.5312 20.9965 18.4844 21.0694 18.4531C21.1527 18.4219 21.236 18.4062 21.3194 18.4062C21.486 18.4062 21.6215 18.4688 21.7256 18.5938C21.8402 18.7083 21.8975 18.8438 21.8975 19C21.8975 19.0625 21.8819 19.125 21.8506 19.1875C21.8298 19.25 21.8037 19.3125 21.7725 19.375C21.7204 19.4688 21.6371 19.6146 21.5225 19.8125C21.4079 20 21.2881 20.25 21.1631 20.5625C21.0381 20.875 20.9287 21.2448 20.835 21.6719C20.7412 22.0885 20.6944 22.5677 20.6944 23.1094C20.6944 23.724 20.8142 24.1927 21.0537 24.5156C21.3037 24.8281 21.6527 24.9844 22.1006 24.9844C22.2881 24.9844 22.5017 24.9271 22.7412 24.8125C22.9912 24.6875 23.2308 24.5 23.46 24.25C23.6996 24 23.9079 23.6823 24.085 23.2969C24.2621 22.9115 24.3767 22.4583 24.4287 21.9375L24.6631 19.25C24.684 19.0938 24.7517 18.9635 24.8662 18.8594C24.9808 18.7552 25.1162 18.7031 25.2725 18.7031C25.4496 18.7031 25.5902 18.7708 25.6944 18.9062C25.7985 19.0312 25.8506 19.1771 25.8506 19.3438L25.6475 21.9375C25.6267 22.1562 25.6319 22.4427 25.6631 22.7969C25.7048 23.151 25.7829 23.5 25.8975 23.8438C26.0121 24.1875 26.184 24.4844 26.4131 24.7344C26.6423 24.974 26.9444 25.0938 27.3194 25.0938C27.5902 25.0938 27.8558 25.026 28.1162 24.8906C28.3767 24.7448 28.6267 24.5573 28.8662 24.3281C29.1058 24.099 29.3246 23.8438 29.5225 23.5625C29.7308 23.2708 29.9183 22.9792 30.085 22.6875C30.2621 22.3958 30.4131 22.1198 30.5381 21.8594C30.6631 21.5885 30.7673 21.3594 30.8506 21.1719C30.9027 21.0573 30.9756 20.9688 31.0694 20.9062C31.1631 20.8438 31.2673 20.8125 31.3819 20.8125C31.5694 20.8125 31.7152 20.875 31.8194 21C31.9235 21.125 31.9756 21.2604 31.9756 21.4062C31.9756 21.4896 31.96 21.5677 31.9287 21.6406C31.8871 21.724 31.8037 21.901 31.6787 22.1719C31.5642 22.4323 31.4079 22.7344 31.21 23.0781C31.0225 23.4115 30.7933 23.7656 30.5225 24.1406C30.2517 24.5156 29.9496 24.8646 29.6162 25.1875C29.2829 25.5 28.9183 25.7604 28.5225 25.9688C28.1371 26.1667 27.7204 26.2656 27.2725 26.2656C26.6579 26.2656 26.1475 26.0938 25.7412 25.75C25.335 25.3958 25.0329 24.8958 24.835 24.25ZM69.7863 25.9219C69.8279 25.9948 69.8488 26.0833 69.8488 26.1875C69.8488 26.3438 69.7915 26.4792 69.6769 26.5938C69.5727 26.7083 69.4321 26.7656 69.255 26.7656C69.1404 26.7656 69.0363 26.7396 68.9425 26.6875C68.8592 26.6354 68.7915 26.5573 68.7394 26.4531C68.5415 26.0677 68.3644 25.5885 68.2081 25.0156C68.0623 24.4323 67.9321 23.7865 67.8175 23.0781C67.7133 22.3698 67.6248 21.6094 67.5519 20.7969C67.4894 19.974 67.4373 19.125 67.3956 18.25C66.6144 18.3542 65.7342 18.4688 64.755 18.5938C63.7863 18.7188 62.6769 18.8646 61.4269 19.0312C60.5519 19.1562 59.6613 19.2656 58.755 19.3594C56.5258 21.7865 54.1769 23.6302 51.7081 24.8906C49.2498 26.1406 46.781 26.7656 44.3019 26.7656C43.1977 26.7656 42.2394 26.6562 41.4269 26.4375C40.6248 26.2292 39.9581 25.9948 39.4269 25.7344C38.906 25.4635 38.5154 25.2135 38.255 24.9844C37.9842 24.7552 37.8383 24.6302 37.8175 24.6094C37.7133 24.5052 37.6613 24.3698 37.6613 24.2031C37.6613 24.0365 37.7185 23.8958 37.8331 23.7812C37.9477 23.6667 38.0831 23.6094 38.2394 23.6094C38.4165 23.6094 38.5623 23.6719 38.6769 23.7969C38.6977 23.8177 38.8227 23.9271 39.0519 24.125C39.281 24.3125 39.6196 24.5156 40.0675 24.7344C40.5258 24.9531 41.104 25.151 41.8019 25.3281C42.4998 25.5052 43.3279 25.5938 44.2863 25.5938C45.5988 25.5938 46.854 25.4167 48.0519 25.0625C49.2498 24.7083 50.38 24.25 51.4425 23.6875C52.5154 23.1146 53.5102 22.4635 54.4269 21.7344C55.354 21.0052 56.1925 20.2656 56.9425 19.5156C56.2029 19.5781 55.4685 19.625 54.7394 19.6562C54.0102 19.6875 53.2915 19.7031 52.5831 19.7031C51.1873 19.7031 49.8592 19.625 48.5988 19.4688C47.3383 19.3125 46.229 19.0521 45.2706 18.6875C44.3123 18.3125 43.5467 17.8177 42.9738 17.2031C42.4113 16.5885 42.13 15.8229 42.13 14.9062C42.13 14.4896 42.2133 14.0729 42.38 13.6562C42.5571 13.2396 42.7654 12.8646 43.005 12.5312C43.2446 12.1875 43.4946 11.9115 43.755 11.7031C44.0154 11.4844 44.2394 11.375 44.4269 11.375C44.5727 11.375 44.7081 11.4271 44.8331 11.5312C44.9581 11.6354 45.0206 11.776 45.0206 11.9531C45.0206 12.0469 44.9998 12.1406 44.9581 12.2344C44.9165 12.3177 44.854 12.3854 44.7706 12.4375C44.7498 12.4583 44.6613 12.5312 44.505 12.6562C44.3488 12.7812 44.1821 12.9531 44.005 13.1719C43.8279 13.3802 43.6665 13.6354 43.5206 13.9375C43.3748 14.2292 43.3019 14.5469 43.3019 14.8906C43.3019 15.4844 43.505 16.0104 43.9113 16.4688C44.3279 16.9167 44.9269 17.2969 45.7081 17.6094C46.4998 17.9115 47.4685 18.1406 48.6144 18.2969C49.7602 18.4531 51.0675 18.5312 52.5363 18.5312C53.38 18.5312 54.2706 18.5052 55.2081 18.4531C56.1456 18.401 57.1352 18.3229 58.1769 18.2188C58.6769 17.6667 59.1196 17.1458 59.505 16.6562C59.8904 16.1667 60.2185 15.7292 60.4894 15.3438C60.9373 14.7083 61.406 14.0312 61.8956 13.3125C62.3852 12.5938 62.8696 11.8646 63.3488 11.125C63.8383 10.3854 64.3123 9.65625 64.7706 8.9375C65.2394 8.20833 65.6769 7.52604 66.0831 6.89062C66.4894 6.24479 66.854 5.66146 67.1769 5.14062C67.4998 4.60938 67.7654 4.17188 67.9738 3.82812C68.0363 3.54688 68.13 3.29167 68.255 3.0625C68.38 2.82292 68.5831 2.70312 68.8644 2.70312C69.0206 2.70312 69.1717 2.77083 69.3175 2.90625C69.4633 3.03125 69.5363 3.19271 69.5363 3.39062C69.5363 3.53646 69.4842 3.69271 69.38 3.85938C69.2758 4.02604 69.1769 4.16667 69.0831 4.28125C69.0519 4.47917 68.9998 4.90104 68.9269 5.54688C68.8644 6.19271 68.7967 6.98438 68.7238 7.92188C68.6613 8.84896 68.604 9.875 68.5519 11C68.5102 12.1146 68.4894 13.2448 68.4894 14.3906C68.4894 14.8177 68.4894 15.2396 68.4894 15.6562C68.4894 16.0729 68.4998 16.4948 68.5206 16.9219C70.0831 16.724 71.2238 16.5885 71.9425 16.5156C72.6613 16.4323 73.0415 16.3906 73.0831 16.3906C73.2185 16.3906 73.3488 16.4479 73.4738 16.5625C73.6092 16.6667 73.6769 16.8073 73.6769 16.9844C73.6769 17.1302 73.6248 17.2604 73.5206 17.375C73.4269 17.4792 73.3019 17.5417 73.1456 17.5625C72.9581 17.5833 72.7394 17.6094 72.4894 17.6406C72.2394 17.6719 71.9321 17.7083 71.5675 17.75C71.2029 17.7917 70.7758 17.8438 70.2863 17.9062C69.7967 17.9583 69.2238 18.026 68.5675 18.1094C68.5988 18.9635 68.6456 19.7865 68.7081 20.5781C68.781 21.3594 68.8644 22.0885 68.9581 22.7656C69.0623 23.4427 69.1821 24.0521 69.3175 24.5938C69.4529 25.1354 69.6092 25.5781 69.7863 25.9219ZM61.2706 17.8594C62.4998 17.6927 63.6144 17.5469 64.6144 17.4219C65.6248 17.2865 66.5363 17.1667 67.3488 17.0625C67.3383 16.6146 67.3279 16.1667 67.3175 15.7188C67.3175 15.2708 67.3175 14.8177 67.3175 14.3594C67.3175 12.8906 67.3435 11.4896 67.3956 10.1562C67.4477 8.8125 67.5206 7.64583 67.6144 6.65625C67.1977 7.3125 66.7342 8.04167 66.2238 8.84375C65.7238 9.63542 65.2029 10.4479 64.6613 11.2812C64.1196 12.1042 63.5727 12.9219 63.0206 13.7344C62.4685 14.5469 61.9425 15.3073 61.4425 16.0156C61.1925 16.3698 60.9373 16.7135 60.6769 17.0469C60.4165 17.3802 60.156 17.7083 59.8956 18.0312C60.1248 18.0104 60.3488 17.9844 60.5675 17.9531C60.7967 17.9219 61.031 17.8906 61.2706 17.8594ZM84.1369 21.6719C84.0223 21.9115 83.8765 22.1979 83.6994 22.5312C83.5327 22.8542 83.34 23.1927 83.1212 23.5469C82.9025 23.901 82.6577 24.2552 82.3869 24.6094C82.116 24.9531 81.8192 25.2656 81.4962 25.5469C81.1837 25.8177 80.8452 26.0365 80.4806 26.2031C80.1265 26.3802 79.7462 26.4688 79.34 26.4688C78.715 26.4688 78.1785 26.276 77.7306 25.8906C77.2827 25.5052 76.9025 25 76.59 24.375C76.2775 23.75 76.0223 23.0417 75.8244 22.25C75.6369 21.4479 75.491 20.6354 75.3869 19.8125C75.2827 18.9792 75.2098 18.1719 75.1681 17.3906C75.1369 16.6094 75.1212 15.9167 75.1212 15.3125C75.1212 14.4375 75.1473 13.5312 75.1994 12.5938C75.2619 11.6562 75.3556 10.7396 75.4806 9.84375C75.6056 8.94792 75.7619 8.09896 75.9494 7.29688C76.1473 6.49479 76.3765 5.79167 76.6369 5.1875C76.9077 4.58333 77.215 4.10417 77.5587 3.75C77.9025 3.39583 78.2931 3.21875 78.7306 3.21875C79.0744 3.21875 79.3817 3.30208 79.6525 3.46875C79.9337 3.625 80.1681 3.88542 80.3556 4.25C80.5431 4.61458 80.689 5.08854 80.7931 5.67188C80.8973 6.25521 80.9494 6.96875 80.9494 7.8125C80.9494 8.85417 80.84 9.93229 80.6212 11.0469C80.4025 12.151 80.1056 13.2656 79.7306 14.3906C79.3556 15.5156 78.9129 16.6406 78.4025 17.7656C77.8921 18.8802 77.3452 19.9688 76.7619 21.0312C77.0223 22.3542 77.3712 23.3958 77.8087 24.1562C78.2462 24.9062 78.7723 25.2812 79.3869 25.2812C79.8035 25.2812 80.2046 25.1198 80.59 24.7969C80.9754 24.4635 81.3296 24.0729 81.6525 23.625C81.9754 23.1771 82.2567 22.724 82.4962 22.2656C82.7462 21.7969 82.939 21.4219 83.0744 21.1406C83.1265 21.0365 83.1994 20.9583 83.2931 20.9062C83.3869 20.8438 83.491 20.8125 83.6056 20.8125C83.7827 20.8125 83.9233 20.875 84.0275 21C84.1421 21.125 84.1994 21.2656 84.1994 21.4219C84.1994 21.4844 84.1785 21.5677 84.1369 21.6719ZM76.3087 15.3906C76.3087 16.0573 76.3244 16.6979 76.3556 17.3125C76.3869 17.9271 76.4285 18.5156 76.4806 19.0781C76.9181 18.2344 77.3348 17.3385 77.7306 16.3906C78.1265 15.4323 78.4754 14.4688 78.7775 13.5C79.0796 12.5208 79.3192 11.5521 79.4962 10.5938C79.6837 9.625 79.7775 8.70312 79.7775 7.82812C79.7775 6.59896 79.6785 5.71875 79.4806 5.1875C79.2827 4.65625 79.0171 4.39062 78.6837 4.39062C78.465 4.39062 78.2515 4.54167 78.0431 4.84375C77.8452 5.14583 77.6577 5.55729 77.4806 6.07812C77.3035 6.59896 77.1421 7.21354 76.9962 7.92188C76.8504 8.63021 76.7254 9.39062 76.6212 10.2031C76.5275 11.0156 76.4494 11.8646 76.3869 12.75C76.3348 13.6354 76.3087 14.5156 76.3087 15.3906ZM90.3781 21.0781C90.2219 21.8073 89.9979 22.4896 89.7063 23.125C89.4146 23.75 89.1021 24.2969 88.7688 24.7656C88.4458 25.2344 88.1177 25.6042 87.7844 25.875C87.451 26.1458 87.1646 26.2917 86.925 26.3125C86.6542 26.3125 86.3521 26.1771 86.0188 25.9062C85.6958 25.6354 85.3833 25.2604 85.0813 24.7812C84.7896 24.2917 84.5448 23.7135 84.3469 23.0469C84.149 22.3802 84.05 21.6562 84.05 20.875C84.05 20.1875 84.1073 19.6667 84.2219 19.3125C84.3469 18.9583 84.425 18.7552 84.4563 18.7031C84.5083 18.6094 84.576 18.5365 84.6594 18.4844C84.7531 18.4323 84.8573 18.4062 84.9719 18.4062C85.149 18.4062 85.2896 18.4688 85.3938 18.5938C85.4979 18.7083 85.55 18.8385 85.55 18.9844C85.55 19.0885 85.5292 19.1771 85.4875 19.25C85.4771 19.2708 85.4302 19.4115 85.3469 19.6719C85.2635 19.9323 85.2219 20.3229 85.2219 20.8438C85.2219 21.4583 85.2844 22.026 85.4094 22.5469C85.5344 23.0677 85.6854 23.5156 85.8625 23.8906C86.0396 24.2656 86.2219 24.5625 86.4094 24.7812C86.6073 24.9896 86.7688 25.0938 86.8938 25.0938C86.9771 25.0938 87.0969 25.0156 87.2531 24.8594C87.4198 24.7031 87.5917 24.4896 87.7688 24.2188C87.9563 23.9479 88.1438 23.625 88.3313 23.25C88.5292 22.875 88.7063 22.4688 88.8625 22.0312C89.0292 21.5833 89.1594 21.1146 89.2531 20.625C89.3573 20.125 89.4094 19.6198 89.4094 19.1094C89.4094 19.0052 89.4042 18.9062 89.3938 18.8125C89.3938 18.7083 89.3938 18.6042 89.3938 18.5C89.3938 18.3229 89.4458 18.1771 89.55 18.0625C89.6646 17.9375 89.8104 17.875 89.9875 17.875C90.1229 17.875 90.2427 17.9167 90.3469 18C90.4615 18.0833 90.5344 18.1979 90.5656 18.3438C90.5656 18.3333 90.5865 18.4167 90.6281 18.5938C90.6698 18.7708 90.7375 19 90.8313 19.2812C90.9354 19.5521 91.0604 19.849 91.2063 20.1719C91.3625 20.4948 91.5448 20.7969 91.7531 21.0781C91.9719 21.349 92.2219 21.5781 92.5031 21.7656C92.7844 21.9531 93.1073 22.0469 93.4719 22.0469C93.6698 22.0469 93.8417 22.0052 93.9875 21.9219C94.1333 21.8385 94.2531 21.7448 94.3469 21.6406C94.4406 21.5365 94.5083 21.4375 94.55 21.3438C94.6021 21.25 94.6281 21.1979 94.6281 21.1875C94.6698 21.0729 94.7375 20.9844 94.8313 20.9219C94.9354 20.849 95.05 20.8125 95.175 20.8125C95.3417 20.8125 95.4823 20.875 95.5969 21C95.7115 21.1146 95.7688 21.25 95.7688 21.4062C95.7688 21.4792 95.7531 21.5521 95.7219 21.625C95.6594 21.7708 95.5656 21.9375 95.4406 22.125C95.326 22.3125 95.175 22.4896 94.9875 22.6562C94.8 22.8229 94.576 22.9635 94.3156 23.0781C94.0656 23.1823 93.7844 23.2344 93.4719 23.2344C93.1073 23.2344 92.7688 23.1719 92.4563 23.0469C92.1438 22.9115 91.8573 22.7448 91.5969 22.5469C91.3469 22.3385 91.1177 22.1094 90.9094 21.8594C90.701 21.599 90.524 21.3385 90.3781 21.0781ZM97.4788 24.2812C97.6975 24.5833 97.9788 24.8281 98.3225 25.0156C98.6663 25.1927 99.0881 25.2812 99.5881 25.2812C100.099 25.2812 100.562 25.1615 100.979 24.9219C101.395 24.6719 101.776 24.349 102.119 23.9531C102.463 23.5573 102.77 23.1146 103.041 22.625C103.312 22.1354 103.557 21.6458 103.776 21.1562C103.828 21.0417 103.901 20.9583 103.994 20.9062C104.088 20.8438 104.192 20.8125 104.307 20.8125C104.484 20.8125 104.625 20.875 104.729 21C104.843 21.125 104.901 21.2604 104.901 21.4062C104.901 21.4583 104.895 21.5052 104.885 21.5469C104.875 21.5781 104.859 21.6146 104.838 21.6562C104.119 23.2396 103.333 24.4323 102.479 25.2344C101.635 26.0365 100.677 26.4479 99.6038 26.4688C98.9163 26.4688 98.3225 26.3333 97.8225 26.0625C97.3225 25.8021 96.911 25.4635 96.5881 25.0469C96.2652 24.6198 96.0256 24.1406 95.8694 23.6094C95.7131 23.0781 95.635 22.5469 95.635 22.0156C95.635 21.4844 95.6975 20.9948 95.8225 20.5469C95.9579 20.099 96.1454 19.7083 96.385 19.375C96.635 19.0417 96.9267 18.7812 97.26 18.5938C97.6038 18.4062 97.9788 18.3125 98.385 18.3125C98.6246 18.3125 98.859 18.3646 99.0881 18.4688C99.3277 18.5625 99.5413 18.7031 99.7288 18.8906C99.9163 19.0677 100.067 19.2865 100.182 19.5469C100.296 19.8073 100.354 20.1042 100.354 20.4375C100.354 20.8646 100.281 21.2656 100.135 21.6406C99.9892 22.0156 99.786 22.3646 99.5256 22.6875C99.2756 23.0104 98.9735 23.3073 98.6194 23.5781C98.2652 23.849 97.885 24.0833 97.4788 24.2812ZM97.01 23.2656C97.3329 23.1302 97.6246 22.9583 97.885 22.75C98.1558 22.5417 98.385 22.3125 98.5725 22.0625C98.76 21.8125 98.9058 21.5521 99.01 21.2812C99.1142 21 99.1663 20.7188 99.1663 20.4375C99.1663 20.125 99.0881 19.8906 98.9319 19.7344C98.7756 19.5677 98.5933 19.4844 98.385 19.4844C98.1038 19.4844 97.8642 19.5625 97.6663 19.7188C97.4683 19.875 97.3069 20.0781 97.1819 20.3281C97.0569 20.5781 96.9631 20.8594 96.9006 21.1719C96.8485 21.474 96.8225 21.776 96.8225 22.0781C96.8225 22.2656 96.8381 22.4635 96.8694 22.6719C96.911 22.8802 96.9579 23.0781 97.01 23.2656ZM106.486 20.2188C106.423 20.3854 106.345 20.5729 106.251 20.7812C106.168 20.9896 106.069 21.2083 105.954 21.4375C105.861 21.6146 105.762 21.7552 105.658 21.8594C105.564 21.9531 105.439 22 105.283 22C105.105 22 104.965 21.9479 104.861 21.8438C104.756 21.7292 104.704 21.599 104.704 21.4531C104.704 21.401 104.71 21.3594 104.72 21.3281C104.73 21.2865 104.756 21.224 104.798 21.1406C105.069 20.6198 105.267 20.1667 105.392 19.7812C105.527 19.3854 105.637 18.974 105.72 18.5469C105.647 18.3073 105.595 18.1042 105.564 17.9375C105.533 17.7708 105.517 17.599 105.517 17.4219C105.517 17.0781 105.59 16.8021 105.736 16.5938C105.881 16.375 106.085 16.2656 106.345 16.2656C106.585 16.2656 106.772 16.3698 106.908 16.5781C107.053 16.7865 107.126 17.0417 107.126 17.3438C107.126 17.5104 107.111 17.6771 107.079 17.8438C107.048 18.0104 107.006 18.2188 106.954 18.4688C107.194 19.0625 107.434 19.5885 107.673 20.0469C107.913 20.5052 108.126 20.9271 108.314 21.3125C108.501 21.6875 108.652 22.0417 108.767 22.375C108.892 22.7083 108.954 23.0417 108.954 23.375C108.954 23.8125 108.866 24.2292 108.689 24.625C108.512 25.0208 108.22 25.3542 107.814 25.625C107.866 25.6354 107.918 25.6406 107.97 25.6406C108.022 25.6406 108.074 25.6406 108.126 25.6406C108.72 25.6406 109.267 25.5052 109.767 25.2344C110.267 24.9635 110.715 24.6146 111.111 24.1875C111.517 23.75 111.876 23.2708 112.189 22.75C112.501 22.2188 112.772 21.6927 113.001 21.1719C113.105 20.9323 113.251 20.8125 113.439 20.8125C113.616 20.8125 113.751 20.875 113.845 21C113.949 21.125 114.001 21.2604 114.001 21.4062C114.001 21.4896 113.986 21.5677 113.954 21.6406C113.84 21.9219 113.689 22.2448 113.501 22.6094C113.324 22.9635 113.105 23.3333 112.845 23.7188C112.595 24.0938 112.303 24.4635 111.97 24.8281C111.637 25.1927 111.262 25.5208 110.845 25.8125C110.439 26.0938 109.991 26.3177 109.501 26.4844C109.012 26.6615 108.475 26.75 107.892 26.75C107.194 26.75 106.543 26.625 105.939 26.375C105.345 26.1354 104.861 25.7344 104.486 25.1719C104.423 25.0781 104.392 24.9792 104.392 24.875C104.392 24.7188 104.449 24.5833 104.564 24.4688C104.689 24.3438 104.829 24.2812 104.986 24.2812C105.152 24.2812 105.293 24.3385 105.408 24.4531C105.418 24.474 105.454 24.5104 105.517 24.5625C105.579 24.6042 105.652 24.6562 105.736 24.7188C105.829 24.7708 105.934 24.8177 106.048 24.8594C106.173 24.901 106.298 24.9219 106.423 24.9219C106.673 24.9219 106.881 24.8698 107.048 24.7656C107.225 24.6615 107.366 24.5365 107.47 24.3906C107.574 24.2344 107.647 24.0729 107.689 23.9062C107.741 23.7292 107.767 23.5781 107.767 23.4531C107.767 23.1927 107.725 22.9323 107.642 22.6719C107.559 22.4115 107.449 22.151 107.314 21.8906C107.189 21.6302 107.048 21.3646 106.892 21.0938C106.746 20.8125 106.611 20.5208 106.486 20.2188Z" fill="#EA85D4"/>
<path d="M20.0158 30.688V33.032H22.2558V33.336H20.0158V35.696H22.4958V36H19.6558V30.384H22.4958V30.688H20.0158ZM25.2735 36.064C24.7882 36.064 24.3908 35.9573 24.0815 35.744C23.7775 35.5307 23.6068 35.2267 23.5695 34.832H23.9375C23.9642 35.1147 24.0922 35.3387 24.3215 35.504C24.5562 35.6693 24.8735 35.752 25.2735 35.752C25.6042 35.752 25.8655 35.6693 26.0575 35.504C26.2548 35.3333 26.3535 35.1253 26.3535 34.88C26.3535 34.7093 26.3002 34.5707 26.1935 34.464C26.0922 34.352 25.9642 34.2667 25.8095 34.208C25.6548 34.1493 25.4442 34.0853 25.1775 34.016C24.8575 33.9307 24.5988 33.848 24.4015 33.768C24.2042 33.6827 24.0362 33.5573 23.8975 33.392C23.7588 33.2267 23.6895 33.0053 23.6895 32.728C23.6895 32.5253 23.7508 32.3387 23.8735 32.168C23.9962 31.992 24.1668 31.8533 24.3855 31.752C24.6042 31.6507 24.8522 31.6 25.1295 31.6C25.5828 31.6 25.9482 31.7147 26.2255 31.944C26.5082 32.168 26.6602 32.48 26.6815 32.88H26.3215C26.3055 32.592 26.1935 32.3573 25.9855 32.176C25.7775 31.9947 25.4895 31.904 25.1215 31.904C24.8122 31.904 24.5562 31.984 24.3535 32.144C24.1508 32.304 24.0495 32.4987 24.0495 32.728C24.0495 32.9307 24.1055 33.096 24.2175 33.224C24.3348 33.3467 24.4762 33.4427 24.6415 33.512C24.8122 33.576 25.0362 33.6453 25.3135 33.72C25.6175 33.8 25.8602 33.88 26.0415 33.96C26.2282 34.0347 26.3855 34.1467 26.5135 34.296C26.6415 34.44 26.7055 34.6347 26.7055 34.88C26.7055 35.104 26.6442 35.3067 26.5215 35.488C26.3988 35.6693 26.2282 35.8107 26.0095 35.912C25.7908 36.0133 25.5455 36.064 25.2735 36.064ZM28.578 31.968V34.84C28.578 35.16 28.6367 35.3813 28.754 35.504C28.8714 35.6213 29.0794 35.68 29.378 35.68H29.866V36H29.322C28.9434 36 28.6634 35.912 28.482 35.736C28.306 35.5547 28.218 35.256 28.218 34.84V31.968H27.562V31.656H28.218V30.552H28.578V31.656H29.866V31.968H28.578ZM34.9675 33.536C34.9675 33.728 34.9622 33.872 34.9515 33.968H31.1995C31.2102 34.3573 31.2955 34.6853 31.4555 34.952C31.6155 35.2187 31.8262 35.4187 32.0875 35.552C32.3488 35.6853 32.6342 35.752 32.9435 35.752C33.3702 35.752 33.7275 35.648 34.0155 35.44C34.3035 35.2267 34.4848 34.9387 34.5595 34.576H34.9355C34.8502 35.0187 34.6315 35.3787 34.2795 35.656C33.9275 35.928 33.4822 36.064 32.9435 36.064C32.5382 36.064 32.1755 35.9733 31.8555 35.792C31.5355 35.6107 31.2848 35.352 31.1035 35.016C30.9222 34.6747 30.8315 34.2773 30.8315 33.824C30.8315 33.3707 30.9195 32.976 31.0955 32.64C31.2768 32.304 31.5275 32.048 31.8475 31.872C32.1675 31.6907 32.5328 31.6 32.9435 31.6C33.3595 31.6 33.7195 31.6907 34.0235 31.872C34.3328 32.048 34.5675 32.2853 34.7275 32.584C34.8875 32.8773 34.9675 33.1947 34.9675 33.536ZM34.6075 33.672C34.6235 33.288 34.5542 32.9627 34.3995 32.696C34.2502 32.4293 34.0448 32.232 33.7835 32.104C33.5222 31.9707 33.2395 31.904 32.9355 31.904C32.6315 31.904 32.3488 31.9707 32.0875 32.104C31.8315 32.232 31.6208 32.4293 31.4555 32.696C31.2955 32.9627 31.2102 33.288 31.1995 33.672H34.6075ZM33.5915 30.312L32.0235 31.304V31.008L33.5915 29.96V30.312ZM36.8315 31.968V34.84C36.8315 35.16 36.8902 35.3813 37.0075 35.504C37.1248 35.6213 37.3328 35.68 37.6315 35.68H38.1195V36H37.5755C37.1968 36 36.9168 35.912 36.7355 35.736C36.5595 35.5547 36.4715 35.256 36.4715 34.84V31.968H35.8155V31.656H36.4715V30.552H36.8315V31.656H38.1195V31.968H36.8315ZM39.4929 30.688C39.4076 30.688 39.3356 30.6613 39.2769 30.608C39.2183 30.5493 39.1889 30.472 39.1889 30.376C39.1889 30.2853 39.2183 30.2107 39.2769 30.152C39.3356 30.0933 39.4076 30.064 39.4929 30.064C39.5783 30.064 39.6503 30.0933 39.7089 30.152C39.7676 30.2107 39.7969 30.2853 39.7969 30.376C39.7969 30.472 39.7676 30.5493 39.7089 30.608C39.6503 30.6613 39.5783 30.688 39.4929 30.688ZM39.6689 31.656V36H39.3089V31.656H39.6689ZM41.0046 33.824C41.0046 33.3707 41.0926 32.976 41.2686 32.64C41.4499 32.304 41.6979 32.048 42.0126 31.872C42.3326 31.6907 42.6979 31.6 43.1086 31.6C43.6526 31.6 44.0979 31.736 44.4446 32.008C44.7966 32.28 45.0153 32.6453 45.1006 33.104H44.7246C44.6553 32.7307 44.4739 32.4373 44.1806 32.224C43.8926 32.0107 43.5353 31.904 43.1086 31.904C42.7886 31.904 42.4979 31.976 42.2366 32.12C41.9753 32.2587 41.7646 32.4747 41.6046 32.768C41.4499 33.056 41.3726 33.408 41.3726 33.824C41.3726 34.2453 41.4499 34.6 41.6046 34.888C41.7646 35.176 41.9753 35.392 42.2366 35.536C42.4979 35.68 42.7886 35.752 43.1086 35.752C43.5353 35.752 43.8926 35.6453 44.1806 35.432C44.4739 35.2187 44.6553 34.9253 44.7246 34.552H45.1006C45.0153 35.0053 44.7966 35.3707 44.4446 35.648C44.0926 35.9253 43.6473 36.064 43.1086 36.064C42.6979 36.064 42.3326 35.9733 42.0126 35.792C41.6979 35.6107 41.4499 35.352 41.2686 35.016C41.0926 34.6747 41.0046 34.2773 41.0046 33.824ZM46.2134 33.824C46.2134 33.376 46.3014 32.984 46.4774 32.648C46.6587 32.312 46.9067 32.0533 47.2214 31.872C47.5414 31.6907 47.904 31.6 48.3094 31.6C48.768 31.6 49.1574 31.712 49.4774 31.936C49.7974 32.16 50.0214 32.4453 50.1494 32.792V31.656H50.5094V36H50.1494V34.856C50.0214 35.208 49.7947 35.4987 49.4694 35.728C49.1494 35.952 48.7627 36.064 48.3094 36.064C47.904 36.064 47.5414 35.9733 47.2214 35.792C46.9067 35.6053 46.6587 35.344 46.4774 35.008C46.3014 34.6667 46.2134 34.272 46.2134 33.824ZM50.1494 33.824C50.1494 33.4453 50.0694 33.112 49.9094 32.824C49.7547 32.5307 49.5414 32.3067 49.2694 32.152C48.9974 31.992 48.6934 31.912 48.3574 31.912C48.0054 31.912 47.696 31.9893 47.4294 32.144C47.1627 32.2933 46.9547 32.512 46.8054 32.8C46.656 33.088 46.5814 33.4293 46.5814 33.824C46.5814 34.2187 46.656 34.56 46.8054 34.848C46.9547 35.136 47.1627 35.3573 47.4294 35.512C47.7014 35.6667 48.0107 35.744 48.3574 35.744C48.6934 35.744 48.9974 35.6667 49.2694 35.512C49.5467 35.352 49.7627 35.128 49.9174 34.84C50.072 34.5467 50.1494 34.208 50.1494 33.824ZM57.742 34.56H55.078L54.542 36H54.15L56.214 30.512H56.614L58.67 36H58.278L57.742 34.56ZM57.63 34.256L56.414 30.984L55.19 34.256H57.63ZM61.7736 31.568C62.2909 31.568 62.7123 31.728 63.0376 32.048C63.3629 32.3627 63.5256 32.832 63.5256 33.456V36H63.1736V33.48C63.1736 32.9627 63.0429 32.568 62.7816 32.296C62.5203 32.0187 62.1656 31.88 61.7176 31.88C61.2483 31.88 60.8723 32.0293 60.5896 32.328C60.3123 32.6267 60.1736 33.0693 60.1736 33.656V36H59.8136V31.656H60.1736V32.576C60.2963 32.2507 60.4989 32.0027 60.7816 31.832C61.0696 31.656 61.4003 31.568 61.7736 31.568ZM65.222 30.688C65.1367 30.688 65.0647 30.6613 65.006 30.608C64.9473 30.5493 64.918 30.472 64.918 30.376C64.918 30.2853 64.9473 30.2107 65.006 30.152C65.0647 30.0933 65.1367 30.064 65.222 30.064C65.3073 30.064 65.3793 30.0933 65.438 30.152C65.4967 30.2107 65.526 30.2853 65.526 30.376C65.526 30.472 65.4967 30.5493 65.438 30.608C65.3793 30.6613 65.3073 30.688 65.222 30.688ZM65.398 31.656V36H65.038V31.656H65.398ZM72.0937 31.568C72.5897 31.568 72.995 31.728 73.3097 32.048C73.6243 32.3627 73.7817 32.832 73.7817 33.456V36H73.4297V33.48C73.4297 32.9627 73.3043 32.568 73.0537 32.296C72.8083 32.0187 72.4697 31.88 72.0377 31.88C71.5897 31.88 71.2297 32.0347 70.9577 32.344C70.6857 32.6533 70.5497 33.1013 70.5497 33.688V36H70.1977V33.48C70.1977 32.9627 70.0723 32.568 69.8217 32.296C69.5763 32.0187 69.2377 31.88 68.8057 31.88C68.3577 31.88 67.9977 32.0347 67.7257 32.344C67.4537 32.6533 67.3177 33.1013 67.3177 33.688V36H66.9577V31.656H67.3177V32.6C67.4403 32.2587 67.6377 32.0027 67.9097 31.832C68.187 31.656 68.5043 31.568 68.8617 31.568C69.2563 31.568 69.595 31.672 69.8777 31.88C70.1657 32.0827 70.363 32.384 70.4697 32.784C70.571 32.384 70.7683 32.0827 71.0617 31.88C71.355 31.672 71.699 31.568 72.0937 31.568ZM75.0752 33.824C75.0752 33.376 75.1632 32.984 75.3392 32.648C75.5206 32.312 75.7686 32.0533 76.0832 31.872C76.4032 31.6907 76.7659 31.6 77.1712 31.6C77.6299 31.6 78.0192 31.712 78.3392 31.936C78.6592 32.16 78.8832 32.4453 79.0112 32.792V31.656H79.3712V36H79.0112V34.856C78.8832 35.208 78.6566 35.4987 78.3312 35.728C78.0112 35.952 77.6246 36.064 77.1712 36.064C76.7659 36.064 76.4032 35.9733 76.0832 35.792C75.7686 35.6053 75.5206 35.344 75.3392 35.008C75.1632 34.6667 75.0752 34.272 75.0752 33.824ZM79.0112 33.824C79.0112 33.4453 78.9312 33.112 78.7712 32.824C78.6166 32.5307 78.4032 32.3067 78.1312 32.152C77.8592 31.992 77.5552 31.912 77.2192 31.912C76.8672 31.912 76.5579 31.9893 76.2912 32.144C76.0246 32.2933 75.8166 32.512 75.6672 32.8C75.5179 33.088 75.4432 33.4293 75.4432 33.824C75.4432 34.2187 75.5179 34.56 75.6672 34.848C75.8166 35.136 76.0246 35.3573 76.2912 35.512C76.5632 35.6667 76.8726 35.744 77.2192 35.744C77.5552 35.744 77.8592 35.6667 78.1312 35.512C78.4086 35.352 78.6246 35.128 78.7792 34.84C78.9339 34.5467 79.0112 34.208 79.0112 33.824ZM81.2821 30.08V36H80.9221V30.08H81.2821Z" fill="#EA85D4"/>
</g>
<defs>
<clipPath id="clip0_606_9">
<rect width="114" height="37" fill="white"/>
</clipPath>
</defs>
</svg>
